<svg width="256" height="256" viewBox="0 0 256 256" fill="none" xmlns="http://www.w3.org/2000/svg">
<path d="M104.734 207.5L48.5 149.277V146.833H94.959C98.066 146.833 101.045 148.053 103.24 150.222C105.435 152.391 106.667 155.331 106.667 158.395V207.5H104.734Z" fill="url(#paint0_linear_159_740)" stroke="white"/>
<path d="M106.707 207.5H190.576C195.063 207.497 199.367 205.714 202.54 202.54C205.713 199.367 207.497 195.064 207.5 190.577V65.4832V65.4817C207.506 63.2548 207.073 61.0484 206.226 58.989C205.378 56.9297 204.133 55.0577 202.561 53.4802C200.989 51.9028 199.121 50.651 197.064 49.7964C195.008 48.9419 192.803 48.5014 190.576 48.5C190.576 48.5 190.576 48.5 190.576 48.5L65.4742 48.5H65.473C63.2459 48.4949 61.0397 48.9291 58.9807 49.7778C56.9216 50.6265 55.0502 51.873 53.4736 53.4459C51.897 55.0188 50.6462 56.8872 49.7927 58.9441C48.9393 61.0011 48.5 63.2062 48.5 65.4331V146.094H89.4541V85.2179V84.7179H89.9541H123.061C137.533 84.7179 148.452 89.0146 155.719 97.6842C162.851 106.005 166.717 116.634 166.596 127.592C166.596 127.593 166.596 127.594 166.596 127.595L106.707 207.5ZM106.707 207.5V171.282V207.5Z" fill="#020B50" stroke="white"/>
<defs>
<linearGradient id="paint0_linear_159_740" x1="44.9582" y1="177.162" x2="107.167" y2="177.162" gradientUnits="userSpaceOnUse">
<stop stop-color="#2F2FDD"/>
<stop offset="0.13" stop-color="#4E3BE2"/>
<stop offset="0.3" stop-color="#734AE9"/>
<stop offset="0.48" stop-color="#9055EE"/>
<stop offset="0.66" stop-color="#A45DF1"/>
<stop offset="0.83" stop-color="#B162F3"/>
<stop offset="1" stop-color="#B564F4"/>
</linearGradient>
</defs>
</svg>
