<svg width="486" height="160" viewBox="0 0 486 160" fill="none" xmlns="http://www.w3.org/2000/svg">
<path d="M205.68 37.1699V122.66H179.44V37.1899L205.68 37.1699ZM293.68 122.66H272.32L248.91 84.9099C245.474 79.2393 242.434 73.3387 239.81 67.2499C241.055 71.8176 241.749 76.5175 241.88 81.2499V122.65H220.59V37.1899H245.39L265.31 68.4999C268.728 73.7334 271.737 79.223 274.31 84.9199C272.97 77.5186 272.301 70.0115 272.31 62.4899V37.1899H293.67L293.68 122.66ZM355.68 122.66L350.85 105.81H328L322.87 122.66H301.55L328 37.1899H355.74L382.55 122.68L355.68 122.66ZM332.45 87.1699H346.28L339.37 62.3699L332.45 87.1699ZM466.45 122.68H437.35L424.9 89.9999H416.62V122.69H390.38V37.1899H435C444.86 37.1899 452.527 39.4966 458 44.1099C463.473 48.7233 466.197 54.8099 466.17 62.3699C466.262 66.904 465.231 71.3906 463.17 75.4299C461.17 79.2099 457.12 82.5433 451.02 85.4299L466.45 122.68ZM416.59 71.6799H427.8C430.615 71.8226 433.407 71.1003 435.8 69.6099C436.78 68.942 437.571 68.0323 438.097 66.9689C438.623 65.9054 438.865 64.7244 438.8 63.5399C438.8 58.0733 435.44 55.3366 428.72 55.3299H416.62L416.59 71.6799Z" fill="url(#paint0_linear_151_728)"/>
<path d="M0 17.42V98.52H41.92V37.19H75C89.36 37.19 100.11 41.45 107.25 49.97C114.299 58.1937 118.12 68.6991 118 79.53C118 92.31 114.17 102.697 106.51 110.69C98.85 118.683 88.9033 122.683 76.67 122.69H58.16V159.88H142.46C147.077 159.877 151.503 158.042 154.768 154.778C158.032 151.513 159.867 147.087 159.87 142.47V17.47C159.877 15.1791 159.431 12.9093 158.559 10.7907C157.687 8.67204 156.406 6.74621 154.789 5.12345C153.172 3.50068 151.25 2.21286 149.135 1.33371C147.019 0.454555 144.751 0.00135164 142.46 4.59284e-05H17.46C15.169 -0.00521468 12.8995 0.441485 10.7814 1.31457C8.66326 2.18765 6.73817 3.46996 5.11633 5.08808C3.4945 6.7062 2.20777 8.62835 1.32983 10.7444C0.451898 12.8606 -6.03969e-06 15.129 0 17.42Z" fill="#020B50"/>
<path d="M0 98.52V101.65L55.56 159.87H58.16V110.52C58.16 107.337 56.8957 104.285 54.6453 102.035C52.3948 99.7843 49.3426 98.52 46.16 98.52H0Z" fill="url(#paint1_linear_151_728)"/>
<path d="M41.42 36.69H41.92H75C89.4603 36.69 100.37 40.9835 107.631 49.6468C114.758 57.9615 118.621 68.5825 118.5 79.5328C118.5 79.5337 118.5 79.5347 118.5 79.5356L118 79.53C118 92.31 114.17 102.697 106.51 110.69C98.85 118.683 88.9033 122.683 76.67 122.69L41.42 36.69ZM41.42 36.69V37.19V98.02M41.42 36.69V98.02M41.42 98.02H0.5V17.42C0.499994 15.1948 0.938927 12.9914 1.79167 10.9361C2.6444 8.88069 3.8942 7.01372 5.46948 5.44204C7.04477 3.87036 8.9146 2.62486 10.9719 1.77683C13.0292 0.928813 15.2336 0.494935 17.4589 0.500046H17.46H142.46C144.685 0.501341 146.888 0.941536 148.943 1.79543C150.998 2.64934 152.864 3.90021 154.435 5.47639C156.006 7.05258 157.25 8.92313 158.097 10.9809C158.944 13.0387 159.376 15.2434 159.37 17.4686V17.47V142.47C159.367 146.954 157.585 151.254 154.414 154.424C151.244 157.595 146.944 159.377 142.46 159.38H58.66V123.19L41.42 98.02Z" fill="#020B50" stroke="white"/>
<defs>
<linearGradient id="paint0_linear_151_728" x1="92.3201" y1="79.9399" x2="466.48" y2="79.9399" gradientUnits="userSpaceOnUse">
<stop stop-color="#2F2FDD"/>
<stop offset="0.13" stop-color="#4E3BE2"/>
<stop offset="0.3" stop-color="#734AE9"/>
<stop offset="0.48" stop-color="#9055EE"/>
<stop offset="0.66" stop-color="#A45DF1"/>
<stop offset="0.83" stop-color="#B162F3"/>
<stop offset="1" stop-color="#B564F4"/>
</linearGradient>
<linearGradient id="paint1_linear_151_728" x1="-2.99" y1="129.19" x2="58.16" y2="129.19" gradientUnits="userSpaceOnUse">
<stop stop-color="#2F2FDD"/>
<stop offset="0.13" stop-color="#4E3BE2"/>
<stop offset="0.3" stop-color="#734AE9"/>
<stop offset="0.48" stop-color="#9055EE"/>
<stop offset="0.66" stop-color="#A45DF1"/>
<stop offset="0.83" stop-color="#B162F3"/>
<stop offset="1" stop-color="#B564F4"/>
</linearGradient>
</defs>
</svg>
